<svg width="133" height="50" viewBox="0 0 133 50" fill="none" xmlns="http://www.w3.org/2000/svg">
<path d="M129.966 60.4813H3.63307C1.30538 60.4813 0.000245869 58.1727 1.43652 56.5954L17.3216 39.1537C18.1702 38.2221 19.4695 37.6777 20.8445 37.6777H113.71C115.133 37.6777 116.47 38.2597 117.314 39.2456L132.213 56.6525C133.571 58.2398 132.255 60.4813 129.966 60.4813Z" fill="#0E4E6A"/>
<path d="M19.6962 41.571C20.575 42.7835 22.3033 43.3209 23.8793 42.872L30.4983 41.0814L35.054 42.5399L36.4015 38.1756L30.0489 36.96L19.6962 41.571Z" fill="#AD5E00"/>
<path d="M39.6211 32.8033L21.4502 38.389L19.6962 41.571L29.4392 38.5896L34.9256 40.2471L29.1507 45.5503L16.7466 50.1563L13.1642 56.6545L64.7165 41.2443L39.6211 32.8033Z" fill="#8C4900"/>
<path d="M114.835 41.997C113.956 43.2091 112.228 43.7469 110.652 43.298L103.575 41.081L99.0189 42.5395L97.6714 38.1752L104.023 36.96L114.835 41.997Z" fill="#AD5E00"/>
<path d="M94.451 32.8033L113.081 38.8146L114.835 41.997L104.633 38.5896L99.1465 40.2471L104.922 45.5503L117.326 50.1563L120.908 56.6545L69.3561 41.2443L94.451 32.8033Z" fill="#8C4900"/>
<path d="M14.3513 23.8398C13.6943 25.322 14.5514 26.983 16.2689 27.5577L60.9697 42.5081C62.3573 42.9721 66.3083 42.4254 67.7572 42.1302L71.4914 42.8158L115.671 58.1643C117.611 58.8378 119.831 58.198 120.908 56.6546L69.0334 38.1423C67.7292 37.6771 66.2979 37.5448 64.9089 37.7613L59.5884 38.59L14.3513 23.8398Z" fill="#873700"/>
<path d="M59.5884 38.5896L14.3513 23.8394C13.6943 25.3215 14.5514 26.9826 16.2689 27.5568L55.5905 40.7084L63.4857 37.9824L59.5884 38.5896Z" fill="#AF5F00"/>
<path d="M120.908 56.6545L78.2982 41.4487L72.751 43.2537L115.671 58.1642C117.611 58.8377 119.831 58.1975 120.908 56.6545Z" fill="#AD5E00"/>
<path d="M117.803 27.5577L70.6793 43.3186C69.2916 43.7827 67.7729 43.8735 66.324 43.5782L62.5808 42.8158L18.4006 58.1643C16.4614 58.8378 14.2409 58.198 13.1638 56.6546L65.0387 38.1423C66.3425 37.6771 67.7742 37.5448 69.1632 37.7613L74.4838 38.59L119.721 23.8398C120.378 25.322 119.521 26.9826 117.803 27.5577Z" fill="#AF5F00"/>
<path d="M12.0182 23.2042L59.9502 39.0039C59.9502 39.0039 64.8909 36.9599 74.2593 39.0039C82.4727 36.3523 122.063 23.2042 122.063 23.2042L109.871 5.91333L67.0356 18.8399L26.4553 5.91333L12.0182 23.2042Z" fill="url(#paint0_linear_20_4861)"/>
<path d="M11.5306 23.0435L60.2458 39.1013C60.2458 39.1013 65.9607 36.9599 73.6437 39.1983C81.8571 36.5467 122.47 23.0563 122.47 23.0563L122.063 21.8784L109.871 5.91333L67.036 18.8399L26.4558 5.91333L12.0182 21.8784L11.5306 23.0435Z" fill="#FFB200"/>
<path d="M12.0182 21.8784L59.9502 37.6781C59.9502 37.6781 64.8909 35.6341 74.2593 37.6781C82.4727 35.0265 122.063 21.8784 122.063 21.8784L109.871 4.58716L67.0356 17.5141L26.4553 4.58716L14.5478 18.8485L12.0182 21.8784Z" fill="#F2E4A7"/>
<path d="M59.9502 37.6781C59.9502 37.6781 62.2734 34.14 67.036 34.14C71.7987 34.14 74.2593 37.6781 74.2593 37.6781C74.2593 37.6781 65.8859 35.6489 59.9502 37.6781Z" fill="#D8C573"/>
<path d="M104.997 0.167847L109.871 4.58678L122.063 21.8784L117.188 17.4587L104.997 0.167847Z" fill="#FFFFEE"/>
<path d="M17.1193 17.5417L67.036 33.369L117.188 17.4587L104.997 0.167847L67.036 11.7687L31.5568 0.250496L17.1193 17.5417Z" fill="#F4F2C6"/>
<path d="M17.1193 17.5417L67.036 33.369V11.7687L31.5568 0.250488L17.1193 17.5417Z" fill="#F4F2C6"/>
<path d="M26.4558 4.58677L31.5568 0.250488L17.1193 17.5417L12.0182 21.8784L26.4558 4.58677Z" fill="#FFFFEE"/>
<path d="M67.0361 33.369C67.0361 33.369 62.6371 28.4173 54.7333 25.737C46.8295 23.0563 32.41 22.3009 20.1672 18.5078C24.5553 12.7456 33.6142 0.918213 33.6142 0.918213C33.6142 0.918213 45.7367 2.92572 52.9969 4.58675C62.0684 6.66294 67.0361 11.7686 67.0361 11.7686V33.369Z" fill="#FFFFEE"/>
<path d="M67.036 33.3691C67.036 33.3691 71.435 28.4174 79.3388 25.7371C87.2426 23.0564 101.97 22.1959 114.213 18.4032C110.767 12.9607 102.54 0.918701 102.54 0.918701C102.54 0.918701 88.3507 2.9755 81.0756 4.58725C73.8001 6.19939 67.0365 11.7691 67.0365 11.7691V33.3691H67.036Z" fill="#FFFFEE"/>
<path d="M69.8117 27.3399L68.9383 11.972L69.0041 11.9227C69.0699 11.873 75.7294 6.92758 83.8518 5.27547C90.6082 3.90079 100.712 2.65609 100.813 2.64367L100.948 2.62738L101.003 2.73485C101.065 2.85668 107.244 14.9759 108.603 17.3163L108.692 17.4691L108.507 17.5301C106.78 18.1 101.362 18.8597 95.6245 19.6641C89.4256 20.5328 82.4002 21.5175 79.3379 22.3785C73.5842 23.9961 70.1339 27.0504 70.0997 27.0811L69.8117 27.3399ZM69.306 12.1074L70.1308 26.6256C71.083 25.86 74.3377 23.4591 79.2275 22.0844C82.3159 21.2165 89.0525 20.2717 95.5677 19.3587C101.091 18.5846 106.318 17.8517 108.194 17.2988C106.749 14.7559 101.336 4.15571 100.729 2.96688C99.5043 3.11975 90.2508 4.29151 83.9347 5.57656C76.3274 7.12391 70.0149 11.5921 69.306 12.1074Z" fill="#F2E4A7"/>
<path d="M63.5547 27.0811C63.5204 27.0504 60.0697 23.9961 54.316 22.3785C51.2542 21.5175 44.2283 20.5328 38.0298 19.6641C32.2933 18.8597 26.8744 18.1 25.1475 17.5301L24.9627 17.4691L25.051 17.3163C26.4107 14.9759 32.5893 2.85668 32.6515 2.73485L32.7065 2.62738L32.8413 2.64367C32.9427 2.65609 43.0462 3.90079 49.8026 5.27547C57.9249 6.92758 64.5844 11.873 64.6507 11.9227L64.7165 11.972L63.8435 27.3399L63.5547 27.0811ZM49.7201 5.57618C43.4045 4.29113 34.1505 3.11936 32.9255 2.96649C32.3189 4.15532 26.9069 14.7559 25.4616 17.2984C27.3368 17.8513 32.5641 18.5839 38.0875 19.3583C44.6023 20.2717 51.3389 21.2161 54.4278 22.084C59.317 23.4587 62.5717 25.8597 63.524 26.6252L64.3487 12.107C63.6398 11.5921 57.3278 7.12391 49.7201 5.57618Z" fill="#F2E4A7"/>
<g opacity="0.49">
<path d="M73.6437 36.9599C77.5298 35.5813 81.4304 34.235 85.3331 32.8929L97.0577 28.9027L108.812 24.9788L114.7 23.0408L120.602 21.133L114.765 23.1816L108.913 25.2004L97.1884 29.1902L85.4336 33.1133C81.5097 34.4092 77.5839 35.7004 73.6437 36.9599Z" fill="#44415D"/>
<path d="M72.7861 35.9088C76.6722 34.5306 80.5728 33.1839 84.4755 31.8418L96.2001 27.8516L107.955 23.9282L113.843 21.9897L119.745 20.0819L113.907 22.1309L108.056 24.1493L96.3308 28.1391L84.576 32.0622C80.6521 33.3581 76.7263 34.6494 72.7861 35.9088Z" fill="#44415D"/>
<path d="M71.4075 35.1565C75.2941 33.7779 79.1946 32.4316 83.0969 31.0895L94.8215 27.0993L106.576 23.1754L112.464 21.2374L118.367 19.3296L112.529 21.3786L106.677 23.397L94.9526 27.3868L83.1974 31.3099C79.2739 32.6054 75.3477 33.8967 71.4075 35.1565Z" fill="#44415D"/>
<path d="M69.9708 34.1395C73.8569 32.7613 77.7574 31.4146 81.6602 30.0725L93.3848 26.0823L105.139 22.1589L111.027 20.2204L116.929 18.3126L111.092 20.3617L105.24 22.38L93.5154 26.3698L81.7607 30.2929C77.8372 31.5892 73.911 32.8801 69.9708 34.1395Z" fill="#44415D"/>
<path d="M60.112 36.9599C56.2255 35.5813 52.3254 34.235 48.4226 32.8929L36.6981 28.9027L24.9433 24.9788L19.0554 23.0408L13.1534 21.133L18.9914 23.1816L24.8428 25.2004L36.5674 29.1902L48.3221 33.1133C52.2456 34.4092 56.1718 35.7004 60.112 36.9599Z" fill="#44415D"/>
<path d="M60.9696 35.9088C57.0831 34.5306 53.1825 33.1839 49.2802 31.8418L37.5557 27.8516L25.8009 23.9282L19.913 21.9897L14.011 20.0819L19.849 22.1309L25.7004 24.1493L37.425 28.1391L49.1797 32.0622C53.1037 33.3581 57.029 34.6494 60.9696 35.9088Z" fill="#44415D"/>
<path d="M62.3478 35.1565C58.4612 33.7779 54.5607 32.4316 50.6584 31.0895L38.9338 27.0993L27.1791 23.1754L21.2912 21.2374L15.3892 19.3296L21.2272 21.3786L27.0786 23.397L38.8032 27.3868L50.5579 31.3099C54.4818 32.6054 58.4076 33.8967 62.3478 35.1565Z" fill="#44415D"/>
<path d="M63.7849 34.1395C59.8988 32.7613 55.9983 31.4146 52.0955 30.0725L40.371 26.0823L28.6163 22.1589L22.7283 20.2204L16.8264 18.3126L22.6643 20.3617L28.5157 22.38L40.2407 26.3698L51.9955 30.2929C55.9185 31.5892 59.8447 32.8801 63.7849 34.1395Z" fill="#44415D"/>
</g>
<path d="M66.1496 10.9655L65.4019 31.8112V51.2985L67.379 49.4881L69.3561 51.2985L69.1542 31.4015L68.0811 10.9655H66.1496Z" fill="#FFB200"/>
<path d="M69.1542 31.4015L68.0811 10.9655H66.1496L65.4019 31.8112V32.8739L69.1654 32.7063L69.1542 31.4015Z" fill="#FFCE00"/>
<defs>
<linearGradient id="paint0_linear_20_4861" x1="67.0407" y1="39.0038" x2="67.0407" y2="5.9131" gradientUnits="userSpaceOnUse">
<stop stop-color="#FFC900"/>
<stop offset="0.2201" stop-color="#FDC500"/>
<stop offset="0.4144" stop-color="#F7BB00"/>
<stop offset="0.5991" stop-color="#EDA900"/>
<stop offset="0.7778" stop-color="#DF8F00"/>
<stop offset="0.9507" stop-color="#CD6F00"/>
<stop offset="1" stop-color="#C76400"/>
</linearGradient>
</defs>
</svg>
